<svg xmlns="http://www.w3.org/2000/svg" viewBox="0 0 839.57 222.63"><defs><style>.cls-1{fill:#d85100;}.cls-2{fill:#0f0f0f;}.cls-3{fill:#4d4d4d;}.cls-4{fill:gray;}.cls-5{isolation:isolate;}</style></defs><g id="图层_2" data-name="图层 2"><g id="图层_4" data-name="图层 4"><path class="cls-1" d="M179.71,46.21l17.08,2.09L162.38,3.59,141.6,53.93l15.19-6,.34,1.36v.48c.1,1.72.17,3.45.17,5.19a89.42,89.42,0,0,1-6.58,33.57c-.42,1-1.62,3.77-1.79,4.11a89.59,89.59,0,0,1-43.58,43.27,161.07,161.07,0,0,1-30,10s17.9,23.62,49,18.94A44.8,44.8,0,0,0,144,157.4c12-8.65,17.92-17.91,25.07-32.53A151,151,0,0,0,179.36,89.3,166.51,166.51,0,0,0,180.76,58C180.51,53.77,180.15,49.2,179.71,46.21Z"/><path class="cls-2" d="M58.66,37.49h0l1.9,21.63L82.66,62a57,57,0,0,1,48.43-4.2l13.17-30.94a91.13,91.13,0,0,0-18.28-5c-.65-.11-1.3-.2-2-.29a17.47,17.47,0,0,0-2.19-.28l-1.49-.16c-.77-.08-1.53-.14-2.3-.19s-1.75-.12-2.62-.16l-1.89-.06h-5.63c-1.31,0-2.61.13-3.92.24a2.8,2.8,0,0,0-.71.06c-1.09.1-2.18.22-3.27.35h-.11l-.91.11-.63.08L87.73,0,51.36,14.6l7.3,22.88Z"/><path class="cls-2" d="M68.18,73.89a82,82,0,0,1,6.66-6.52l-21-1.73-2.6-22.29c-.85.75-1.67,1.54-2.5,2.33-.48.46-1,.92-1.45,1.4-.91.91-1.82,1.83-2.69,2.77l2.59,22.32Z"/><path class="cls-3" d="M156.58,156.22l12.84,1.44,1.91,21.64c.84-.75,1.67-1.54,2.5-2.32.48-.47,1-.93,1.45-1.41.91-.91,1.82-1.83,2.69-2.77l-1.89-21.61-13.52-1.52A74.17,74.17,0,0,1,156.58,156.22Z"/><path class="cls-3" d="M164,185.12h0l-1.17-21-13.12-2.07A54.72,54.72,0,0,1,126.79,172c-2.22.66-10.46.85-10.57.85a58.91,58.91,0,0,1-6.08-.4C79,169.13,65.06,148.1,59.25,134.55A57.76,57.76,0,0,1,56,125.31c-.38-1.47-.54-2.32-.54-2.32h0a56.71,56.71,0,0,1,7.17-41.45L40.58,78.66,38.68,57h0L15.94,49.3.54,85.3l21.35,11h0v.3c-.11.64-.2,1.29-.29,1.93s-.21,1.52-.29,2.28c-.06.49-.11,1-.16,1.47-.08.77-.14,1.55-.2,2.32s-.11,1.74-.15,2.6c0,.64-.05,1.27-.07,1.91v5.48a.29.29,0,0,0,0,.13q.07,2,.24,3.93a2.84,2.84,0,0,0,.06.71c.09,1.09.22,2.18.35,3.27v.11a7.06,7.06,0,0,0,.11.91,2.62,2.62,0,0,0,.08.63L0,134.84,14.61,171.3,37.49,164h0c.2.28.41.55.61.82.66.89,1.32,1.78,2,2.65.2.25.4.51.61.76.78,1,1.58,1.92,2.4,2.86l.33.37c.67.76,1.38,1.5,2.08,2.25s1.18,1.22,1.78,1.82,1,1,1.54,1.5,1.24,1.17,1.88,1.75,1.23,1.09,1.86,1.62c.43.37.86.74,1.3,1.1s1,.81,1.53,1.22,1.09.86,1.65,1.27h0L49.27,206.7l36,15.4,11-21.35h.3c.64.11,1.28.19,1.93.29s1.51.21,2.28.29l1.47.16c.77.08,1.55.14,2.32.2s1.74.11,2.61.15q.94,0,1.89.06h5.72q2-.08,3.93-.24l.71-.06c1.09-.09,2.18-.22,3.26-.35h.12l.91-.11.63-.08,10.55,21.57L171.28,208Z"/><path class="cls-4" d="M200.72,126.3a.58.58,0,0,1,.05-.29c.1-.65.2-1.3.29-2a5.6,5.6,0,0,1,.07-.59c0-.19.07-.52.11-.78s.08-.59.11-.89c.06-.49.11-1,.16-1.49l.06-.65v-.47l.09-1.19c0-.47.06-.93.09-1.4v-1.21q0-.94.06-1.89v-5.63c0-.74-.09-1.48-.13-2.22V105a5.45,5.45,0,0,0-.07-1.07l-.06-.73a10.09,10.09,0,0,0-.12-1.09c0-.36-.06-.62-.1-.93s-.08-.82-.13-1.23v-.11a9.24,9.24,0,0,0-.11-.92c-.34-2.47-.79-4.93-1.33-7.36v-.1c-.24-1-.49-2.09-.76-3.13a.25.25,0,0,0-.05-.18c-.28-1.05-.57-2.09-.89-3.13L198,84.8c-.29-.94-.6-1.87-.91-2.8l-.14-.39c-.34-1-.71-2-1.09-3a.78.78,0,0,1,0-.14c-.36-.92-.74-1.84-1.13-2.76-.07-.14-.13-.29-.19-.44q-1.24-2.86-2.7-5.67c-.07-.12-.13-.24-.19-.36-.9-1.7-1.84-3.39-2.85-5h0c-.69-1.14-1.4-2.27-2.15-3.37,3.54,41.95-15.25,75.56-18.31,80.72l-.43.71,14.94,2.31L184,165.54h0l22.68,7.76,15.4-36Z"/><path class="cls-1" d="M124.88,99.56A18.48,18.48,0,0,0,91.1,94.08l15.77,9.63-18.46.67a18.42,18.42,0,1,0,36.45-4.82Z"/><path class="cls-1" d="M146.39,78.5h0a47,47,0,0,0-63.6-7.2c-.56.41-1.12.84-1.66,1.28A47,47,0,0,0,63.65,108.8c-.09,10.71,2.43,21.58,8.41,29.55l7.75-1.65a115.13,115.13,0,0,0,16.22-5,28.45,28.45,0,0,1-16.24-25.61v-.3a28.42,28.42,0,0,1,56-6.44,82.91,82.91,0,0,0,6.57-11.56Z"/><g class="cls-5"><path class="cls-2" d="M280.6,204.54a13.68,13.68,0,0,1-6.42-1.47,14.55,14.55,0,0,1-4.75-3.9,17.25,17.25,0,0,1-2.91-5.62,22.07,22.07,0,0,1-1-6.6,23.33,23.33,0,0,1,2-9.49,29,29,0,0,1,5.44-8.22,26.9,26.9,0,0,1,7.8-5.77,20.48,20.48,0,0,1,9.1-2.16,13.28,13.28,0,0,1,6.39,1.5,14.51,14.51,0,0,1,4.69,4,17.9,17.9,0,0,1,2.88,5.64,22.07,22.07,0,0,1,1,6.6,23.34,23.34,0,0,1-2,9.46,28.36,28.36,0,0,1-5.41,8.17,27.27,27.27,0,0,1-7.77,5.73A20.29,20.29,0,0,1,280.6,204.54Zm1.08-4.86a13.85,13.85,0,0,0,6.91-1.83,19.5,19.5,0,0,0,5.61-4.75,23.62,23.62,0,0,0,3.75-6.51,19.85,19.85,0,0,0,1.38-7.15,18.15,18.15,0,0,0-.69-5,12.84,12.84,0,0,0-2-4.2,10.25,10.25,0,0,0-3.33-2.88,9.13,9.13,0,0,0-4.5-1.08,14,14,0,0,0-6.94,1.8,19.74,19.74,0,0,0-5.61,4.71,23.22,23.22,0,0,0-3.78,6.51,20.08,20.08,0,0,0-1.38,7.21,18.15,18.15,0,0,0,.69,5,13,13,0,0,0,2,4.21,10.25,10.25,0,0,0,3.33,2.88A9.37,9.37,0,0,0,281.68,199.68Z"/><path class="cls-2" d="M313.14,172.9h4.69l-1.26,5.88a19.68,19.68,0,0,1,5.58-4.65,13.39,13.39,0,0,1,6.6-1.77,10,10,0,0,1,4.63,1,10.65,10.65,0,0,1,3.48,2.85,12.77,12.77,0,0,1,2.19,4.17,16.62,16.62,0,0,1,.75,5,19.59,19.59,0,0,1-1.38,7.23,21,21,0,0,1-3.75,6.22,18.8,18.8,0,0,1-5.5,4.32,14.13,14.13,0,0,1-6.6,1.62,9.39,9.39,0,0,1-6.06-1.92,10.46,10.46,0,0,1-3.43-4.86l-4,19h-5.28Zm8.77,27.38a9.63,9.63,0,0,0,4.74-1.23,14,14,0,0,0,3.93-3.25,15.84,15.84,0,0,0,2.71-4.5,13.47,13.47,0,0,0,1-5,12,12,0,0,0-.54-3.63,8.61,8.61,0,0,0-1.59-3,8,8,0,0,0-2.5-2,6.91,6.91,0,0,0-3.24-.75,8.44,8.44,0,0,0-2.88.57,15,15,0,0,0-3,1.5,13.58,13.58,0,0,0-2.64,2.23,9,9,0,0,0-1.8,2.73l-1.93,8.94a10.12,10.12,0,0,0,2.68,5.26A6.8,6.8,0,0,0,321.91,200.28Z"/><path class="cls-2" d="M355.89,204.84a12.66,12.66,0,0,1-5.22-1A11.19,11.19,0,0,1,346.8,201a12,12,0,0,1-2.41-4.2,16.1,16.1,0,0,1-.81-5.17,18.81,18.81,0,0,1,1.44-7.26A19.61,19.61,0,0,1,355.11,174a18,18,0,0,1,7.57-1.59,12.17,12.17,0,0,1,7.47,2.13,7.4,7.4,0,0,1,2.85,6.33,7.87,7.87,0,0,1-4.17,7.24q-4.17,2.43-12.94,2.43-1.44,0-3.21-.06t-3.69-.24a4.37,4.37,0,0,0-.06.72v.66a12.83,12.83,0,0,0,.48,3.54,9.07,9.07,0,0,0,1.44,3,6.88,6.88,0,0,0,2.43,2,7.5,7.5,0,0,0,3.45.75,11.4,11.4,0,0,0,5.41-1.41,10.68,10.68,0,0,0,4.14-3.82l4.26,1.27a14.44,14.44,0,0,1-2.7,3.18,19.11,19.11,0,0,1-3.54,2.49,19.42,19.42,0,0,1-4.06,1.65A16,16,0,0,1,355.89,204.84Zm6.31-28.52a11.76,11.76,0,0,0-8.26,3.18,14.37,14.37,0,0,0-2.58,3.28,18.78,18.78,0,0,0-1.65,3.75q1.8.18,3.39.24t3,.06a30.83,30.83,0,0,0,5.74-.45,12.63,12.63,0,0,0,3.75-1.26,5.24,5.24,0,0,0,2.07-1.92,4.85,4.85,0,0,0,.63-2.44,3.73,3.73,0,0,0-1.65-3.36A8,8,0,0,0,362.2,176.32Z"/><path class="cls-2" d="M381.53,172.9h4.92l-1.56,7.26a21.38,21.38,0,0,1,5.19-5.28,10.08,10.08,0,0,1,5.8-2q.54,0,.9,0a5.86,5.86,0,0,1,.66.09l-1,4.56a14.67,14.67,0,0,0-7.06,2,14.12,14.12,0,0,0-5.19,5.35l-4.08,19.33h-5.29Z"/><path class="cls-2" d="M407.82,204.84a10.27,10.27,0,0,1-4.71-1.05A10.72,10.72,0,0,1,399.6,201a12.42,12.42,0,0,1-2.19-4.14,16.62,16.62,0,0,1-.75-5,19,19,0,0,1,1.44-7.29,22,22,0,0,1,3.81-6.22,18.62,18.62,0,0,1,5.52-4.32,14.25,14.25,0,0,1,6.58-1.62,9.08,9.08,0,0,1,6,1.95,10.93,10.93,0,0,1,3.4,4.83l1.38-6.24H430l-5.28,24.86q-.06.24-.09.42a2.19,2.19,0,0,0,0,.36q0,1.08,1.32,1.14l-1,4.56c-.45.08-.83.14-1.17.18a8.32,8.32,0,0,1-.94.06,3.8,3.8,0,0,1-2.55-.75,2.45,2.45,0,0,1-.87-1.95,19,19,0,0,1,.54-3.42,16.73,16.73,0,0,1-5.64,4.77A14.13,14.13,0,0,1,407.82,204.84Zm2.29-4.56a8.6,8.6,0,0,0,2.85-.54,14.38,14.38,0,0,0,5.67-3.76,9.23,9.23,0,0,0,1.8-2.73l1.86-9a8.16,8.16,0,0,0-.9-2.86,9,9,0,0,0-1.77-2.34,8.25,8.25,0,0,0-2.34-1.56,6.54,6.54,0,0,0-2.67-.57,9.63,9.63,0,0,0-4.74,1.23,14,14,0,0,0-3.94,3.24,16.11,16.11,0,0,0-2.7,4.54,13.7,13.7,0,0,0-1,5,12,12,0,0,0,.54,3.63,8.7,8.7,0,0,0,1.59,3,7.69,7.69,0,0,0,2.49,2A7.19,7.19,0,0,0,410.11,200.28Z"/><path class="cls-2" d="M440,204.66a6.78,6.78,0,0,1-4.05-1.14,4.19,4.19,0,0,1-1.59-3.66,8.87,8.87,0,0,1,.18-1.74L439,177H435l.9-4.14h4l2.23-10.45h5.28l-2.22,10.45h6.66l-.9,4.14h-6.6l-4.15,19.46a4.83,4.83,0,0,0-.11.9,2.11,2.11,0,0,0,.78,1.83,3.17,3.17,0,0,0,1.92.57,7.76,7.76,0,0,0,2.82-.51,16.65,16.65,0,0,0,1.86-.81l.3,4.2a10.43,10.43,0,0,1-3.21,1.38A16.66,16.66,0,0,1,440,204.66Z"/><path class="cls-2" d="M458.74,172.9H464l-6.66,31.34h-5.29Zm2.64-12.49h5.28L465.28,167H460Z"/><path class="cls-2" d="M478.67,204.84a12,12,0,0,1-5.13-1.05,11.3,11.3,0,0,1-3.79-2.82,12,12,0,0,1-2.31-4.14,16.23,16.23,0,0,1-.78-5.08,18.16,18.16,0,0,1,1.5-7.26,20.65,20.65,0,0,1,4.09-6.19,20,20,0,0,1,6-4.32,17,17,0,0,1,7.3-1.62,12,12,0,0,1,5.13,1,11.48,11.48,0,0,1,3.81,2.82,12.06,12.06,0,0,1,2.37,4.17,16,16,0,0,1,.81,5.11,18,18,0,0,1-1.5,7.2A20.47,20.47,0,0,1,486,203.22,17.16,17.16,0,0,1,478.67,204.84Zm1-4.56a9.87,9.87,0,0,0,4.56-1.14,14.31,14.31,0,0,0,4-3.06,15.56,15.56,0,0,0,2.85-4.48,13.78,13.78,0,0,0,1.08-5.43,11.9,11.9,0,0,0-.54-3.66,9.12,9.12,0,0,0-1.53-2.92,7.32,7.32,0,0,0-2.4-2,6.74,6.74,0,0,0-3.1-.72,9.94,9.94,0,0,0-4.53,1.14,13.73,13.73,0,0,0-4,3.1,15.69,15.69,0,0,0-2.85,4.53,13.85,13.85,0,0,0-1.08,5.4,11.9,11.9,0,0,0,.54,3.66,8.91,8.91,0,0,0,1.53,2.92,7.08,7.08,0,0,0,2.37,1.92A6.88,6.88,0,0,0,479.69,200.28Z"/><path class="cls-2" d="M507,172.9h4.8l-1.44,6.72a18.3,18.3,0,0,1,6.19-5.28,16.15,16.15,0,0,1,7.68-2q3.78,0,5.31,2a8.65,8.65,0,0,1,1.53,5.37,20.64,20.64,0,0,1-.2,2.77c-.15,1-.32,2-.52,3l-4,18.73h-5.28l3.72-17.53a22.37,22.37,0,0,0,.54-4.5q0-5.11-4.26-5.11a8.83,8.83,0,0,0-3.15.63,15.17,15.17,0,0,0-3.22,1.71,15.92,15.92,0,0,0-2.88,2.59,15.39,15.39,0,0,0-2.22,3.3l-4,18.91h-5.29Z"/><path class="cls-2" d="M544.77,204.84a20,20,0,0,1-6.84-1.17,13.13,13.13,0,0,1-5.29-3.39l3-3.54a15.46,15.46,0,0,0,4.56,3.15,13,13,0,0,0,5.28,1.05,9.68,9.68,0,0,0,5.83-1.62,5.09,5.09,0,0,0,2.22-4.33,3,3,0,0,0-1.77-2.82,29,29,0,0,0-5.38-1.86q-2.22-.6-3.84-1.2a11.32,11.32,0,0,1-2.7-1.38,5.39,5.39,0,0,1-1.62-1.77,4.88,4.88,0,0,1-.54-2.37,9.64,9.64,0,0,1,1.14-4.72,11.1,11.1,0,0,1,3-3.51,14.12,14.12,0,0,1,4.38-2.22,17.32,17.32,0,0,1,5.2-.78,15,15,0,0,1,6,1.14,12.27,12.27,0,0,1,4.32,3l-3.06,3.18a10,10,0,0,0-3.69-2.61,11.86,11.86,0,0,0-4.53-.87,11.34,11.34,0,0,0-2.92.36,7.34,7.34,0,0,0-2.4,1.11,5.36,5.36,0,0,0-1.65,1.89,5.63,5.63,0,0,0-.6,2.65,2.61,2.61,0,0,0,1.41,2.46,21.63,21.63,0,0,0,4.54,1.62q2.46.66,4.35,1.32a13.21,13.21,0,0,1,3.15,1.53,6.09,6.09,0,0,1,1.89,2,5.33,5.33,0,0,1,.63,2.67,9.55,9.55,0,0,1-1,4.48,10.75,10.75,0,0,1-2.91,3.48,13.65,13.65,0,0,1-4.47,2.28A19.11,19.11,0,0,1,544.77,204.84Z"/><path class="cls-2" d="M595.15,204.54a13.7,13.7,0,0,1-6.43-1.47,14.51,14.51,0,0,1-4.74-3.9,17.25,17.25,0,0,1-2.91-5.62,22.07,22.07,0,0,1-1-6.6,23.33,23.33,0,0,1,2-9.49,29,29,0,0,1,5.43-8.22,26.81,26.81,0,0,1,7.81-5.77,20.44,20.44,0,0,1,9.09-2.16,13.35,13.35,0,0,1,6.4,1.5,14.37,14.37,0,0,1,4.68,4,17.9,17.9,0,0,1,2.88,5.64,22.07,22.07,0,0,1,1,6.6,23.34,23.34,0,0,1-2,9.46,28.33,28.33,0,0,1-5.4,8.17,27.46,27.46,0,0,1-7.78,5.73A20.25,20.25,0,0,1,595.15,204.54Zm1.08-4.86a13.81,13.81,0,0,0,6.9-1.83,19.68,19.68,0,0,0,5.62-4.75,23.62,23.62,0,0,0,3.75-6.51,19.85,19.85,0,0,0,1.38-7.15,18.15,18.15,0,0,0-.69-5,12.84,12.84,0,0,0-2-4.2,10.28,10.28,0,0,0-3.34-2.88,9.13,9.13,0,0,0-4.5-1.08,13.94,13.94,0,0,0-6.93,1.8,19.64,19.64,0,0,0-5.62,4.71,23.22,23.22,0,0,0-3.78,6.51,20.08,20.08,0,0,0-1.38,7.21,18.15,18.15,0,0,0,.69,5,13,13,0,0,0,2,4.21,10.25,10.25,0,0,0,3.33,2.88A9.38,9.38,0,0,0,596.23,199.68Z"/><path class="cls-2" d="M627.69,172.9h4.68l-1.26,5.88a19.68,19.68,0,0,1,5.58-4.65,13.43,13.43,0,0,1,6.61-1.77,10,10,0,0,1,4.62,1,10.65,10.65,0,0,1,3.48,2.85,12.77,12.77,0,0,1,2.19,4.17,16.62,16.62,0,0,1,.75,5,19.59,19.59,0,0,1-1.38,7.23,21,21,0,0,1-3.75,6.22,18.75,18.75,0,0,1-5.49,4.32,14.17,14.17,0,0,1-6.61,1.62,9.39,9.39,0,0,1-6.06-1.92,10.51,10.51,0,0,1-3.42-4.86l-4,19h-5.28Zm8.76,27.38a9.69,9.69,0,0,0,4.75-1.23,14,14,0,0,0,3.93-3.25,16,16,0,0,0,2.7-4.5,13.47,13.47,0,0,0,1-5,12,12,0,0,0-.54-3.63,8.61,8.61,0,0,0-1.59-3,8.06,8.06,0,0,0-2.49-2,6.91,6.91,0,0,0-3.24-.75,8.5,8.5,0,0,0-2.89.57,15,15,0,0,0-3,1.5,13.58,13.58,0,0,0-2.64,2.23,9.23,9.23,0,0,0-1.8,2.73l-1.92,8.94a10.11,10.11,0,0,0,2.67,5.26A6.8,6.8,0,0,0,636.45,200.28Z"/><path class="cls-2" d="M664.67,204.66a6.78,6.78,0,0,1-4-1.14,4.19,4.19,0,0,1-1.59-3.66,8.87,8.87,0,0,1,.18-1.74l4.5-21.08h-4.08l.9-4.14h4l2.22-10.45h5.29l-2.23,10.45h6.67l-.9,4.14H669l-4.14,19.46a5.05,5.05,0,0,0-.12.9,2.11,2.11,0,0,0,.78,1.83,3.17,3.17,0,0,0,1.92.57,7.76,7.76,0,0,0,2.82-.51,17,17,0,0,0,1.87-.81l.3,4.2a10.5,10.5,0,0,1-3.22,1.38A16.64,16.64,0,0,1,664.67,204.66Z"/><path class="cls-2" d="M683.4,172.9h5.29L682,204.24h-5.28Zm2.65-12.49h5.28L690,167h-5.28Z"/><path class="cls-2" d="M697,172.9h4.81l-1.45,6.72a18.53,18.53,0,0,1,5.77-5.31,13.48,13.48,0,0,1,6.84-1.95,6.9,6.9,0,0,1,5.32,2,8.44,8.44,0,0,1,2,5.64,20.54,20.54,0,0,1,6-5.7,13.25,13.25,0,0,1,6.85-1.92q3.84,0,5.4,2.1A9,9,0,0,1,740,180a27.06,27.06,0,0,1-.66,5.53l-4,18.73h-5.29l3.73-17.53a21.31,21.31,0,0,0,.54-4.38q0-5.24-4.32-5.23a8,8,0,0,0-3,.6,11.28,11.28,0,0,0-2.88,1.71,16.66,16.66,0,0,0-2.58,2.65,19.53,19.53,0,0,0-2.1,3.33l-4,18.85h-5.28l3.72-17.53a22.16,22.16,0,0,0,.54-4.44q0-5.18-4.26-5.17a9.48,9.48,0,0,0-5.88,2.25,16.75,16.75,0,0,0-4.69,6l-4,18.91h-5.28Z"/><path class="cls-2" d="M750,172.9h5.28l-6.66,31.34h-5.29Zm2.64-12.49h5.28L756.53,167h-5.28Z"/><path class="cls-2" d="M755.21,200.82l23.66-24.08h-18l.85-3.84h23.89l-.72,3.42L761.33,200.4h18.5l-.84,3.84h-24.5Z"/><path class="cls-2" d="M798,204.84a12.66,12.66,0,0,1-5.22-1,11.13,11.13,0,0,1-3.88-2.82,12.12,12.12,0,0,1-2.4-4.2,16.1,16.1,0,0,1-.81-5.17,18.81,18.81,0,0,1,1.44-7.26,19.39,19.39,0,0,1,4-6.16,19.64,19.64,0,0,1,6.06-4.26,18,18,0,0,1,7.56-1.59,12.18,12.18,0,0,1,7.48,2.13,7.4,7.4,0,0,1,2.85,6.33,7.87,7.87,0,0,1-4.17,7.24q-4.17,2.43-12.94,2.43-1.44,0-3.21-.06c-1.18,0-2.42-.12-3.7-.24a4.36,4.36,0,0,0,0,.72v.66a12.82,12.82,0,0,0,.47,3.54,9.09,9.09,0,0,0,1.45,3,6.88,6.88,0,0,0,2.43,2,7.5,7.5,0,0,0,3.45.75,11.34,11.34,0,0,0,5.4-1.41,10.71,10.71,0,0,0,4.15-3.82l4.26,1.27a14.44,14.44,0,0,1-2.7,3.18,19.11,19.11,0,0,1-3.54,2.49,19.65,19.65,0,0,1-4.06,1.65A16,16,0,0,1,798,204.84Zm6.3-28.52A11.76,11.76,0,0,0,796,179.5a14.37,14.37,0,0,0-2.58,3.28,18.23,18.23,0,0,0-1.65,3.75q1.8.18,3.39.24t3,.06a30.64,30.64,0,0,0,5.73-.45,12.7,12.7,0,0,0,3.76-1.26,5.24,5.24,0,0,0,2.07-1.92,4.85,4.85,0,0,0,.63-2.44,3.73,3.73,0,0,0-1.65-3.36A8,8,0,0,0,804.26,176.32Z"/><path class="cls-2" d="M823.6,172.9h4.92L827,180.16a21.38,21.38,0,0,1,5.19-5.28,10.06,10.06,0,0,1,5.8-2q.54,0,.9,0a5.86,5.86,0,0,1,.66.09l-1,4.56a14.64,14.64,0,0,0-7.06,2,14.12,14.12,0,0,0-5.19,5.35l-4.09,19.33h-5.28Z"/></g><g class="cls-5"><path class="cls-2" d="M360.64,20.69,318.51,118H296.27l-42-97.32h24.33L308.22,90.2l30-69.51Z"/></g><g class="cls-5"><path class="cls-2" d="M434.46,86.73H377.88a17.6,17.6,0,0,0,7.23,11q5.7,4,14.18,4A28.74,28.74,0,0,0,409.65,100a25.09,25.09,0,0,0,8.41-5.5L429.6,107Q419,119.12,398.73,119.12a48.8,48.8,0,0,1-22.38-4.93,36.17,36.17,0,0,1-15-13.7,37.73,37.73,0,0,1-5.28-19.88,38.29,38.29,0,0,1,5.21-19.81A36.52,36.52,0,0,1,375.58,47a44.31,44.31,0,0,1,40.25-.21,34.5,34.5,0,0,1,14,13.55,40.37,40.37,0,0,1,5.08,20.51C434.88,81.17,434.74,83.11,434.46,86.73ZM383.72,62.68a17.73,17.73,0,0,0-6.12,11.4h36.84a17.89,17.89,0,0,0-6.12-11.33,18.24,18.24,0,0,0-12.23-4.24A18.66,18.66,0,0,0,383.72,62.68Z"/><path class="cls-2" d="M449.34,14.85H471V118H449.34Z"/><path class="cls-2" d="M505.57,114.19a36.7,36.7,0,0,1-14.66-13.7,37.65,37.65,0,0,1-5.29-19.88,37.67,37.67,0,0,1,5.29-19.88A36.68,36.68,0,0,1,505.57,47a47.83,47.83,0,0,1,42.34,0,36.84,36.84,0,0,1,14.6,13.69,37.76,37.76,0,0,1,5.28,19.88,37.73,37.73,0,0,1-5.28,19.88,36.87,36.87,0,0,1-14.6,13.7,47.92,47.92,0,0,1-42.34,0Zm34.9-18.49q5.35-5.64,5.35-15.09t-5.35-15.08a18,18,0,0,0-13.69-5.63A18.27,18.27,0,0,0,513,65.53q-5.42,5.63-5.42,15.08T513,95.7a18.31,18.31,0,0,0,13.77,5.63A18.07,18.07,0,0,0,540.47,95.7Z"/><path class="cls-2" d="M596.92,114.19a36.68,36.68,0,0,1-20.23-33.58A37.35,37.35,0,0,1,582,60.73,37,37,0,0,1,596.92,47,45.94,45.94,0,0,1,618.4,42.1,41.61,41.61,0,0,1,639,47,29.24,29.24,0,0,1,651.9,61.15l-16.82,9Q629.25,59.9,618.26,59.9a19,19,0,0,0-14,5.56q-5.57,5.57-5.57,15.15t5.57,15.15a19,19,0,0,0,14,5.57q11.12,0,16.82-10.29l16.82,9.17A29.84,29.84,0,0,1,639,114.12a41.21,41.21,0,0,1-20.64,5A45.94,45.94,0,0,1,596.92,114.19Z"/><path class="cls-2" d="M665.53,29.31a11.26,11.26,0,0,1-3.76-8.62,11.26,11.26,0,0,1,3.76-8.62,13.73,13.73,0,0,1,9.73-3.48A14.12,14.12,0,0,1,685,11.93a10.69,10.69,0,0,1,3.75,8.34,11.8,11.8,0,0,1-3.75,9,15.26,15.26,0,0,1-19.46.07Zm-1.12,13.9H686.1V118H664.41Z"/></g><g class="cls-5"><path class="cls-2" d="M754.49,114.39a22.26,22.26,0,0,1-7.85,3.55,39.68,39.68,0,0,1-9.8,1.18q-13.35,0-20.65-6.81t-7.3-20V61.56H697.35V44.88h11.54V26.67h21.69V44.88h18.63V61.56H730.58V92c0,3.15.81,5.59,2.43,7.3a9,9,0,0,0,6.89,2.57,13.89,13.89,0,0,0,8.75-2.78Z"/></g><g class="cls-5"><path class="cls-2" d="M839.57,43.21,805.79,122.6q-5.14,12.93-12.72,18.21t-18.29,5.28a38,38,0,0,1-11.53-1.8,25.53,25.53,0,0,1-9.32-5l7.92-15.43a18.92,18.92,0,0,0,5.77,3.48,18.11,18.11,0,0,0,6.47,1.25,11.47,11.47,0,0,0,7.23-2.16,18.3,18.3,0,0,0,5-7.16l.28-.69L754.21,43.21h22.38l21,50.75,21.14-50.75Z"/></g></g></g></svg>